<?xml version="1.0" encoding="UTF-8"?>
<svg xmlns="http://www.w3.org/2000/svg" width="794" height="794" viewBox="0 0 794.180 794.180">
<path d="M 62.861 0.004 L 731.315 0.004 C 765.889 0.004 794.176 28.291 794.176 62.865 L 794.176 731.319 C 794.176 765.892 765.889 794.180 731.315 794.180 L 62.861 794.180 C 28.288 794.180 0.000 765.892 0.000 731.319 L 0.000 62.865 C 0.000 28.291 28.288 0.004 62.861 0.004 Z" fill="#e2004f" fill-rule="evenodd" stroke="none"/><path d="M 62.861 28.350 L 731.316 28.350 C 750.299 28.350 765.830 43.881 765.830 62.864 L 765.830 731.319 C 765.830 750.302 750.299 765.833 731.316 765.833 L 62.861 765.833 C 43.878 765.833 28.347 750.302 28.347 731.319 L 28.347 62.864 C 28.347 43.881 43.878 28.350 62.861 28.350 M 534.963 377.497 L 569.011 377.497 L 569.011 483.014 C 569.011 483.014 566.864 533.012 512.265 534.239 C 512.265 534.239 482.818 538.533 462.267 513.687 L 433.470 477.656 C 423.867 510.360 393.638 534.242 357.827 534.242 C 314.290 534.242 278.996 498.948 278.996 455.411 C 278.996 411.874 314.290 376.580 357.827 376.580 C 374.662 376.580 390.262 381.861 403.068 390.852 L 403.068 339.693 L 436.579 339.693 L 436.579 428.032 L 489.184 491.066 C 489.184 491.066 494.859 500.882 509.582 500.729 C 524.305 500.575 534.274 493.520 534.734 474.349 M 395.065 429.847 L 388.447 422.210 C 380.398 414.782 369.643 410.243 357.827 410.243 C 332.882 410.243 312.659 430.466 312.659 455.411 C 312.659 480.356 332.882 500.579 357.827 500.579 C 382.772 500.579 402.995 480.356 402.995 455.411 C 402.995 445.921 400.065 437.116 395.065 429.847 Z" fill="#ffffff" fill-rule="evenodd" stroke="none"/><path d="M 433.470 477.656 C 431.101 485.724 427.475 493.253 422.821 500.021 L 399.738 472.274 C 401.837 467.063 402.995 461.373 402.995 455.411 C 402.995 446.457 400.387 438.114 395.893 431.094 L 395.894 431.095 Z" fill="#d1d3d6" fill-rule="evenodd" stroke="none"/><path d="M 447.010 377.576 L 481.517 377.576 L 481.517 471.439 C 481.517 471.439 481.038 476.251 485.488 486.637 L 447.302 440.880 Z" fill="#ffffff" fill-rule="evenodd" stroke="none"/><path d="M 481.517 444.738 L 481.517 471.439 C 481.517 471.439 481.038 476.251 485.488 486.637 L 447.302 440.880 L 447.124 402.429 Z" fill="#d1d3d6" fill-rule="evenodd" stroke="none"/><path d="M 90.037 339.866 L 90.037 113.415 L 216.435 113.416 L 216.435 144.671 L 126.837 144.671 L 126.837 201.112 L 216.435 201.112 L 216.435 233.425 L 126.837 233.425 L 126.837 339.866 M 349.634 267.004 C 349.634 253.382 345.251 241.872 336.487 232.421 C 327.722 222.971 317.004 218.272 304.333 218.272 C 291.714 218.272 281.049 222.971 272.232 232.421 C 263.414 241.873 258.979 253.382 258.979 267.004 C 258.979 280.626 263.414 292.136 272.232 301.587 C 281.049 311.038 291.714 315.737 304.333 315.737 C 316.898 315.737 327.564 311.038 336.381 301.587 C 345.198 292.136 349.634 280.626 349.634 267.004 M 223.552 266.688 C 223.552 255.970 225.611 245.832 229.676 236.329 C 233.742 226.772 239.602 218.272 247.206 210.880 C 254.756 203.541 263.414 197.945 273.234 193.985 C 283.003 190.077 293.245 188.124 304.016 188.124 C 315.051 188.124 325.399 190.077 335.167 193.985 C 344.934 197.945 353.646 203.700 361.407 211.302 C 369.116 218.853 375.029 227.353 379.041 236.857 C 383.054 246.308 385.061 256.286 385.061 266.688 C 385.060 277.511 383.054 287.701 379.095 297.152 C 375.135 306.655 369.327 315.050 361.724 322.389 C 353.646 330.098 344.724 335.958 334.955 339.918 C 325.136 343.878 314.839 345.885 304.016 345.885 C 293.351 345.885 283.161 343.878 273.340 339.918 C 263.573 335.958 254.861 330.203 247.206 322.706 C 239.497 315.050 233.584 306.497 229.571 296.994 C 225.558 287.543 223.552 277.405 223.552 266.688 M 403.054 339.866 L 403.054 193.246 L 436.634 193.246 L 436.634 339.866 M 498.978 216.582 C 502.568 206.920 507.373 199.740 513.287 195.093 C 519.199 190.447 526.539 188.124 535.356 188.124 C 540.054 188.124 544.753 188.705 549.347 189.814 C 553.941 190.975 558.428 192.612 562.863 194.777 L 550.773 223.235 C 547.921 221.176 544.807 219.644 541.428 218.694 C 538.101 217.691 534.352 217.216 530.234 217.216 C 519.094 217.216 511.122 221.651 506.264 230.574 C 501.407 239.497 498.978 254.491 498.978 275.505 L 498.978 339.866 L 465.398 339.866 L 465.398 192.929 L 498.978 192.929 M 704.140 271.492 L 586.876 271.492 C 587.721 285.220 591.786 295.885 599.125 303.593 C 606.411 311.249 616.178 315.103 628.375 315.103 C 639.198 315.103 648.227 312.833 655.407 308.292 C 662.641 303.751 668.924 296.413 674.309 286.328 L 702.608 302.115 C 694.372 316.845 684.129 327.828 671.986 335.061 C 659.790 342.294 645.534 345.885 629.114 345.885 C 605.619 345.885 586.876 338.704 572.989 324.395 C 559.051 310.035 552.082 290.922 552.082 267.004 C 552.082 243.985 559.262 225.135 573.676 210.299 C 588.037 195.516 606.516 188.124 629.114 188.124 C 652.714 188.124 671.141 194.882 684.340 208.398 C 697.540 221.915 704.140 240.817 704.140 265.156 M 669.346 248.894 C 668.025 238.388 663.961 230.362 657.255 224.871 C 650.550 219.328 641.416 216.582 629.747 216.582 C 618.713 216.583 609.843 219.275 603.138 224.608 C 596.432 229.992 591.733 238.071 589.040 248.894 Z" fill="#ffffff" fill-rule="nonzero" stroke="none"/><path d="M 398.567 158.421 C 398.567 152.718 400.679 147.808 404.849 143.689 C 409.020 139.572 413.983 137.513 419.739 137.513 C 425.757 137.513 430.720 139.519 434.680 143.479 C 438.640 147.438 440.647 152.401 440.647 158.421 C 440.647 164.387 438.640 169.402 434.627 173.468 C 430.614 177.533 425.651 179.592 419.739 179.592 C 413.983 179.592 409.020 177.481 404.849 173.309 C 400.679 169.138 398.567 164.175 398.567 158.421 Z" fill="#ffffff" fill-rule="nonzero" stroke="none"/><path d="M 311.266 586.561 C 318.130 586.561 324.508 587.819 330.399 590.336 C 336.291 592.853 341.382 596.256 345.672 600.546 C 349.962 604.836 353.336 609.841 355.796 615.561 C 358.256 621.281 359.485 627.344 359.485 633.750 C 359.485 635.009 359.428 636.324 359.314 637.697 C 359.199 639.070 359.028 640.385 358.799 641.644 L 289.302 641.644 C 290.789 645.991 293.392 649.737 297.109 652.883 C 300.827 656.030 305.546 657.602 311.266 657.602 C 315.385 657.602 319.417 656.802 323.364 655.200 C 327.311 653.599 330.314 651.482 332.373 648.851 L 353.136 661.549 C 350.848 664.524 348.160 667.183 345.071 669.528 C 341.982 671.873 338.608 673.876 334.947 675.534 C 331.286 677.193 327.454 678.480 323.450 679.395 C 319.446 680.311 315.385 680.768 311.266 680.768 C 304.402 680.768 297.967 679.538 291.961 677.079 C 285.956 674.619 280.750 671.244 276.346 666.955 C 271.942 662.665 268.453 657.660 265.879 651.940 C 263.305 646.220 262.018 640.157 262.018 633.750 C 262.018 627.230 263.333 621.081 265.964 615.304 C 268.596 609.526 272.142 604.521 276.604 600.289 C 281.065 596.056 286.270 592.710 292.219 590.250 C 298.168 587.791 304.517 586.561 311.266 586.561 M 311.266 609.898 C 306.118 609.898 301.743 611.271 298.139 614.017 C 294.536 616.762 291.819 620.080 289.988 623.969 L 332.545 623.969 C 330.828 620.080 328.140 616.762 324.479 614.017 C 320.819 611.271 316.414 609.898 311.266 609.898 Z" fill="#ffffff" fill-rule="nonzero" stroke="none"/><path d="M 451.140 677.336 L 425.572 677.336 L 425.572 668.413 C 422.140 672.188 418.365 675.191 414.246 677.422 C 410.128 679.653 405.552 680.768 400.518 680.768 C 395.485 680.768 390.795 679.796 386.447 677.851 C 382.100 675.906 378.325 673.246 375.122 669.872 C 371.919 666.497 369.374 662.579 367.486 658.117 C 365.598 653.656 364.654 648.851 364.654 643.703 L 364.654 589.993 L 390.394 589.993 L 390.394 638.727 C 390.394 641.358 390.852 643.789 391.767 646.020 C 392.682 648.250 393.941 650.224 395.542 651.940 C 397.144 653.656 399.003 655.000 401.119 655.972 C 403.235 656.945 405.495 657.431 407.897 657.431 C 410.300 657.431 412.559 656.945 414.675 655.972 C 416.792 655.000 418.679 653.656 420.338 651.940 C 421.997 650.224 423.284 648.193 424.199 645.848 C 425.114 643.503 425.572 641.015 425.572 638.384 L 425.572 589.993 L 451.140 589.993 Z" fill="#ffffff" fill-rule="nonzero" stroke="none"/><path d="M 489.943 557.218 L 489.943 596.685 C 493.604 593.711 497.636 591.280 502.040 589.392 C 506.445 587.505 511.049 586.561 515.854 586.561 C 522.260 586.561 528.323 587.791 534.044 590.250 C 539.763 592.710 544.768 596.056 549.058 600.289 C 553.348 604.521 556.723 609.526 559.183 615.304 C 561.642 621.081 562.872 627.230 562.872 633.750 C 562.872 640.157 561.642 646.220 559.183 651.940 C 556.723 657.660 553.377 662.665 549.144 666.955 C 544.911 671.244 539.935 674.619 534.215 677.079 C 528.495 679.538 522.375 680.768 515.854 680.768 C 511.049 680.768 506.474 679.824 502.126 677.937 C 497.779 676.049 493.718 673.561 489.943 670.472 L 489.943 677.336 L 464.203 677.336 L 464.203 557.218 M 489.256 633.750 C 489.256 637.068 489.886 640.185 491.144 643.102 C 492.402 646.020 494.090 648.536 496.206 650.653 C 498.322 652.769 500.839 654.456 503.757 655.715 C 506.674 656.973 509.791 657.602 513.109 657.602 C 516.426 657.602 519.543 656.973 522.461 655.715 C 525.378 654.456 527.895 652.769 530.011 650.653 C 532.127 648.536 533.814 646.020 535.073 643.102 C 536.331 640.185 536.961 637.068 536.961 633.750 C 536.961 630.433 536.331 627.315 535.073 624.398 C 533.814 621.481 532.127 618.964 530.011 616.848 C 527.895 614.732 525.378 613.044 522.461 611.786 C 519.543 610.528 516.426 609.898 513.109 609.898 C 509.791 609.898 506.674 610.528 503.757 611.786 C 500.839 613.044 498.322 614.732 496.206 616.848 C 494.090 618.964 492.402 621.481 491.144 624.398 C 489.886 627.315 489.256 630.433 489.256 633.750 Z" fill="#ffffff" fill-rule="nonzero" stroke="none"/><path d="M 598.242 557.218 L 598.242 677.336 L 572.503 677.336 L 572.503 557.218 Z" fill="#ffffff" fill-rule="nonzero" stroke="none"/><path d="M 655.921 586.561 C 662.785 586.561 669.163 587.819 675.054 590.336 C 680.946 592.853 686.036 596.256 690.326 600.546 C 694.616 604.836 697.991 609.841 700.451 615.561 C 702.910 621.281 704.140 627.344 704.140 633.750 C 704.140 635.009 704.083 636.324 703.968 637.697 C 703.854 639.070 703.682 640.385 703.454 641.644 L 633.956 641.644 C 635.444 645.991 638.046 649.737 641.764 652.883 C 645.482 656.030 650.201 657.602 655.921 657.602 C 660.039 657.602 664.072 656.802 668.019 655.200 C 671.965 653.599 674.968 651.482 677.027 648.851 L 697.791 661.549 C 695.503 664.524 692.814 667.183 689.726 669.528 C 686.637 671.873 683.262 673.876 679.601 675.534 C 675.941 677.193 672.108 678.480 668.104 679.395 C 664.101 680.311 660.039 680.768 655.921 680.768 C 649.057 680.768 642.622 679.538 636.616 677.079 C 630.610 674.619 625.405 671.244 621.001 666.955 C 616.596 662.665 613.107 657.660 610.533 651.940 C 607.959 646.220 606.672 640.157 606.672 633.750 C 606.672 627.230 607.988 621.081 610.619 615.304 C 613.250 609.526 616.797 604.521 621.258 600.289 C 625.720 596.056 630.925 592.710 636.873 590.250 C 642.822 587.791 649.171 586.561 655.921 586.561 M 655.921 609.898 C 650.773 609.898 646.397 611.271 642.794 614.017 C 639.190 616.762 636.473 620.080 634.643 623.969 L 677.199 623.969 C 675.483 620.080 672.795 616.762 669.134 614.017 C 665.473 611.271 661.069 609.898 655.921 609.898 Z" fill="#ffffff" fill-rule="nonzero" stroke="none"/><path d="M 90.037 535.056 L 90.044 535.056 C 90.306 561.571 103.498 584.990 123.617 599.308 L 123.617 680.714 L 90.037 680.714 Z" fill="#ffffff" fill-rule="nonzero" stroke="none"/><path d="M 90.037 535.056 L 90.044 535.056 C 90.306 561.571 103.498 584.990 123.617 599.308 L 123.617 611.534 C 118.543 608.420 110.775 602.600 101.363 592.123 C 96.917 587.174 93.162 581.186 90.037 575.037 Z" fill="#d1d3d6" fill-rule="nonzero" stroke="none"/><path d="M 249.613 534.689 C 249.377 578.556 213.748 614.046 169.825 614.046 C 125.903 614.046 90.273 578.556 90.038 534.689 L 123.772 534.689 C 124.007 559.925 144.534 580.311 169.825 580.311 C 195.117 580.311 215.644 559.925 215.878 534.689 Z" fill="#ffffff" fill-rule="evenodd" stroke="none"/><path d="M 249.507 538.320 L 249.507 680.714 L 215.928 680.714 L 215.928 599.385 C 235.276 585.663 248.241 563.533 249.507 538.320 Z" fill="#ffffff" fill-rule="nonzero" stroke="none"/><path d="M 249.507 538.320 L 249.507 577.219 C 246.621 582.593 243.239 587.762 239.321 592.123 C 229.175 603.418 220.937 609.302 215.928 612.216 L 215.928 599.385 C 235.276 585.663 248.241 563.533 249.507 538.320 Z" fill="#d1d3d6" fill-rule="nonzero" stroke="none"/>
</svg>